<?xml version="1.0" encoding="UTF-8" standalone="no"?>
<svg
   xmlns:dc="http://purl.org/dc/elements/1.1/"
   xmlns:cc="http://creativecommons.org/ns#"
   xmlns:rdf="http://www.w3.org/1999/02/22-rdf-syntax-ns#"
   xmlns:svg="http://www.w3.org/2000/svg"
   xmlns="http://www.w3.org/2000/svg"
   xmlns:sodipodi="http://sodipodi.sourceforge.net/DTD/sodipodi-0.dtd"
   xmlns:inkscape="http://www.inkscape.org/namespaces/inkscape"
   version="1.1"
   preserveAspectRatio="xMidYMid meet"
   viewBox="0 0 640 640"
   width="640"
   height="640"
   id="svg3929"
   sodipodi:docname="icon.svg"
   inkscape:version="0.92.4 (5da689c313, 2019-01-14)">
  <metadata
     id="metadata3933">
    <rdf:RDF>
      <cc:Work
         rdf:about="">
        <dc:format>image/svg+xml</dc:format>
        <dc:type
           rdf:resource="http://purl.org/dc/dcmitype/StillImage" />
        <dc:title></dc:title>
      </cc:Work>
    </rdf:RDF>
  </metadata>
  <sodipodi:namedview
     pagecolor="#ffffff"
     bordercolor="#666666"
     borderopacity="1"
     objecttolerance="10"
     gridtolerance="10"
     guidetolerance="10"
     inkscape:pageopacity="0"
     inkscape:pageshadow="2"
     inkscape:window-width="1920"
     inkscape:window-height="1137"
     id="namedview3931"
     showgrid="false"
     inkscape:pagecheckerboard="true"
     inkscape:zoom="1.5125"
     inkscape:cx="223.60122"
     inkscape:cy="288.52318"
     inkscape:window-x="1912"
     inkscape:window-y="-8"
     inkscape:window-maximized="1"
     inkscape:current-layer="layer1" />
  <defs
     id="defs3843">
    <path
       d="M0 0L640 0L640 640L0 640L0 0Z"
       id="f5qiefmryv" />
    <path
       d="M605.3 215C605.3 264.76 567.01 305.16 519.84 305.16C472.68 305.16 434.39 264.76 434.39 215C434.39 165.24 472.68 124.84 519.84 124.84C567.01 124.84 605.3 165.24 605.3 215Z"
       id="baZg77ECcC" />
    <path
       d="M371.98 124.84C385.79 124.84 396.98 136.04 396.98 149.84C396.98 155.52 396.98 147.54 396.98 153.22C396.98 167.03 385.79 178.22 371.98 178.22C319.29 178.22 186.21 178.22 133.51 178.22C119.71 178.22 108.51 167.03 108.51 153.22C108.51 147.54 108.51 155.52 108.51 149.84C108.51 136.04 119.71 124.84 133.51 124.84C186.21 124.84 319.29 124.84 371.98 124.84Z"
       id="h2sIzwSdXX" />
    <path
       d="M73.79 196.05C87.6 196.05 98.79 207.24 98.79 221.05C98.79 267.58 98.79 382.19 98.79 428.72C98.79 442.53 87.6 453.72 73.79 453.72C67.91 453.72 75.28 453.72 69.4 453.72C55.6 453.72 44.4 442.53 44.4 428.72C44.4 382.19 44.4 267.58 44.4 221.05C44.4 207.24 55.6 196.05 69.4 196.05C75.28 196.05 67.91 196.05 73.79 196.05Z"
       id="d23mtihlnc" />
    <path
       d="M512.97 463.44C526.78 463.44 537.97 474.64 537.97 488.44C537.97 493.79 537.97 484.81 537.97 490.16C537.97 503.96 526.78 515.16 512.97 515.16C434.02 515.16 222.18 515.16 143.24 515.16C129.43 515.16 118.24 503.96 118.24 490.16C118.24 484.81 118.24 493.79 118.24 488.44C118.24 474.64 129.43 463.44 143.24 463.44C222.18 463.44 434.02 463.44 512.97 463.44Z"
       id="c12Kw3Zahb" />
    <path
       d="M580.3 332.18C594.11 332.18 605.3 343.37 605.3 357.18C605.3 376.48 605.3 409.41 605.3 428.72C605.3 442.53 594.11 453.72 580.3 453.72C573.78 453.72 579.21 453.72 572.69 453.72C558.89 453.72 547.69 442.53 547.69 428.72C547.69 409.41 547.69 376.48 547.69 357.18C547.69 343.37 558.89 332.18 572.69 332.18C579.21 332.18 573.78 332.18 580.3 332.18Z"
       id="bGPFVc0U0" />
    <path
       d="M220.33 212.3C220.33 260.57 180.92 299.76 132.37 299.76C83.82 299.76 44.4 260.57 44.4 212.3C44.4 164.03 83.82 124.84 132.37 124.84C180.92 124.84 220.33 164.03 220.33 212.3Z"
       id="b1hKAyAskm" />
    <path
       d="M215.47 430.96C215.47 477.43 177.15 515.16 129.94 515.16C82.73 515.16 44.4 477.43 44.4 430.96C44.4 384.49 82.73 346.76 129.94 346.76C177.15 346.76 215.47 384.49 215.47 430.96Z"
       id="a1GQHgZxAm" />
    <path
       d="M605.3 430.96C605.3 477.43 567.01 515.16 519.84 515.16C472.68 515.16 434.39 477.43 434.39 430.96C434.39 384.49 472.68 346.76 519.84 346.76C567.01 346.76 605.3 384.49 605.3 430.96Z"
       id="b1hKPLys0I" />
    <path
       d="M206.56 229.53C206.56 257.86 182.41 280.85 152.67 280.85C122.93 280.85 98.79 257.86 98.79 229.53C98.79 201.21 122.93 178.22 152.67 178.22C182.41 178.22 206.56 201.21 206.56 229.53Z"
       id="cOT4LQpAU" />
    <path
       d="M149.03 196.05L358.08 196.05L358.08 416.45L149.03 416.45L149.03 196.05Z"
       id="a2IBDKi7p" />
    <path
       d="M422.91 338.66L547.69 338.66L547.69 420.97L422.91 420.97L422.91 338.66Z"
       id="g36qPFUwN" />
    <path
       d="M168.47 428.2C168.47 447.65 152.86 463.44 133.63 463.44C114.4 463.44 98.79 447.65 98.79 428.2C98.79 408.74 114.4 392.95 133.63 392.95C152.86 392.95 168.47 408.74 168.47 428.2Z"
       id="avhlPJIUk" />
    <path
       d="M133.63 401.86L514.47 401.86L514.47 463.44L133.63 463.44L133.63 401.86Z"
       id="b2wNh80jYA" />
    <path
       d="M547.69 424.55C547.69 446.02 529.18 463.44 506.37 463.44C483.56 463.44 465.04 446.02 465.04 424.55C465.04 403.08 483.56 385.66 506.37 385.66C529.18 385.66 547.69 403.08 547.69 424.55Z"
       id="c1866DRFq6" />
    <path
       d="M98.79 229.53L157.13 229.53L157.13 424.55L98.79 424.55L98.79 229.53Z"
       id="b2rHfcD7IR" />
    <path
       d="M152.67 178.22L371.05 178.22L371.05 219.9L152.67 219.9L152.67 178.22Z"
       id="a1szxQzLhH" />
    <path
       d="M340.78 320.44C340.78 375.92 295.19 420.97 239.04 420.97C182.89 420.97 137.3 375.92 137.3 320.44C137.3 264.95 182.89 219.9 239.04 219.9C295.19 219.9 340.78 264.95 340.78 320.44Z"
       id="g1Hwes8aTl" />
    <path
       d="M283.61 320.44C283.61 345.03 263.64 365 239.04 365C214.44 365 194.47 345.03 194.47 320.44C194.47 295.84 214.44 275.87 239.04 275.87C263.64 275.87 283.61 295.84 283.61 320.44Z"
       id="b2pKg7fw7" />
  </defs>
  <g
     inkscape:groupmode="layer"
     id="layer1"
     inkscape:label="FINAL"
     style="display:inline;opacity:1">
    <circle
       style="fill:#ffffff;fill-opacity:1"
       id="path3832"
       cx="320"
       cy="320"
       r="320" />
    <g
       id="g3828"
       transform="matrix(0.68,0,0,0.68,103.98668,102.4)">
      <path
         inkscape:connector-curvature="0"
         id="rect3946"
         d="m 134.29688,124.95898 c -49.86001,0 -90.000005,40.14 -90.000005,90 v 210.08204 c 0,49.86 40.139995,90 90.000005,90 h 380.6621 c 49.86,0 90,-40.14 90,-90 v -73.9668 c -10.04901,-28.22228 -49.99978,-23.26287 -56.19921,-0.68555 v 58.27539 c 0,31.09549 -24.976,56.12891 -56,56.12891 H 152.5293 c -31.024,0 -56.000003,-25.03342 -56.000003,-56.12891 v -175.3457 c 0,-31.09548 24.976003,-56.12891 56.000003,-56.12891 h 224.68359 c 32,-7.80975 22.42531,-49.24731 -0.95703,-52.23047 z"
         style="display:inline;opacity:1;fill:#35373b;fill-opacity:1;stroke-width:2.36248016" />
      <ellipse
         ry="87.903824"
         rx="86.280991"
         cy="213.52367"
         cx="519.33887"
         id="path4764"
         style="display:inline;opacity:1;fill:#bf2d4b;fill-opacity:1;stroke-width:0.40909091" />
      <path
         inkscape:connector-curvature="0"
         id="path4779"
         d="M 238.67773,220.82617 A 101.15703,101.15703 0 0 0 137.52148,321.98438 101.15703,101.15703 0 0 0 238.67773,423.14062 101.15703,101.15703 0 0 0 339.83398,321.98438 101.15703,101.15703 0 0 0 238.67773,220.82617 Z m 0.99219,54.21485 a 44.628098,44.628098 0 0 1 44.62696,44.6289 44.628098,44.628098 0 0 1 -44.62696,44.62696 44.628098,44.628098 0 0 1 -44.6289,-44.62696 44.628098,44.628098 0 0 1 44.6289,-44.6289 z"
         style="display:inline;opacity:1;fill:#35373b;fill-opacity:1" />
    </g>
  </g>
  <ellipse
     style="fill:#000000;fill-opacity:0"
     id="path4760"
     cx="518.01654"
     cy="179.50414"
     rx="75.041321"
     ry="75.702477" />
</svg>
